<svg xmlns="http://www.w3.org/2000/svg" xmlns:xlink="http://www.w3.org/1999/xlink" width="119.467" height="29.867" id="svg4428" version="1.1"><defs id="defs4430"><linearGradient id="linearGradient3913"><stop style="stop-color:#fff;stop-opacity:1" offset="0" id="stop3915"/><stop id="stop3921" offset=".5" style="stop-color:#fff;stop-opacity:.49803922"/><stop style="stop-color:#fff;stop-opacity:0" offset="1" id="stop3917"/></linearGradient><linearGradient id="linearGradient3868"><stop style="stop-color:#5a5a5a;stop-opacity:1" offset="0" id="stop3870"/><stop style="stop-color:#646464;stop-opacity:1" offset="1" id="stop3872"/></linearGradient><linearGradient id="linearGradient3813"><stop style="stop-color:#666;stop-opacity:1" offset="0" id="stop3815"/><stop style="stop-color:#636363;stop-opacity:1" offset="1" id="stop3817"/></linearGradient><linearGradient id="linearGradient3787"><stop style="stop-color:#e5e5df;stop-opacity:1" offset="0" id="stop3789"/><stop style="stop-color:#dadad4;stop-opacity:1" offset="1" id="stop3791"/></linearGradient><linearGradient id="linearGradient3806-3-5-6"><stop style="stop-color:#303030;stop-opacity:1" offset="0" id="stop3808-6-9-1"/><stop style="stop-color:#232323;stop-opacity:1" offset="1" id="stop3810-4-6-3"/></linearGradient><linearGradient xlink:href="#linearGradient3787" id="linearGradient3793" x1="40" y1="1044.362" x2="40" y2="1032.362" gradientUnits="userSpaceOnUse"/><linearGradient xlink:href="#linearGradient3787" id="linearGradient3828" gradientUnits="userSpaceOnUse" x1="40" y1="1044.362" x2="40" y2="1032.362" gradientTransform="matrix(1.16667 0 0 1.07692 -6.5 -80.336)"/><linearGradient xlink:href="#linearGradient3787-8" id="linearGradient3835" gradientUnits="userSpaceOnUse" gradientTransform="matrix(1.16667 0 0 1.07692 -35.5 -1105.698)" x1="40" y1="1044.362" x2="40" y2="1032.362"/><linearGradient xlink:href="#linearGradient3787-8" id="linearGradient3835-4" gradientUnits="userSpaceOnUse" gradientTransform="matrix(1.16667 0 0 1.07692 -35.5 -1105.698)" x1="40" y1="1044.362" x2="40" y2="1032.362"/><linearGradient id="linearGradient3787-8"><stop style="stop-color:#f5f5ee;stop-opacity:1" offset="0" id="stop3789-2"/><stop style="stop-color:#e6e6df;stop-opacity:1" offset="1" id="stop3791-6"/></linearGradient><linearGradient xlink:href="#linearGradient3787-8" id="linearGradient3835-3" gradientUnits="userSpaceOnUse" gradientTransform="matrix(1.16667 0 0 1.07692 -35.5 -1105.698)" x1="40" y1="1044.362" x2="40" y2="1032.362"/><linearGradient id="linearGradient3787-7"><stop style="stop-color:#f5f5ee;stop-opacity:1" offset="0" id="stop3789-3"/><stop style="stop-color:#e6e6e0;stop-opacity:1" offset="1" id="stop3791-3"/></linearGradient><linearGradient xlink:href="#linearGradient3787" id="linearGradient3807" x1="11" y1="15.75" x2="11" y2="8.25" gradientUnits="userSpaceOnUse"/><linearGradient xlink:href="#linearGradient3813" id="linearGradient3819" x1="29.5" y1="15.2" x2="29.5" y2="8.8" gradientUnits="userSpaceOnUse"/><linearGradient xlink:href="#linearGradient4231" id="linearGradient3807-1" x1="10" y1="7" x2="10" y2="15.889" gradientUnits="userSpaceOnUse"/><linearGradient id="linearGradient4231"><stop id="stop4233" offset="0" style="stop-color:#e7e7e1;stop-opacity:1"/><stop id="stop4239" offset="1" style="stop-color:#dadad3;stop-opacity:1"/></linearGradient><linearGradient xlink:href="#linearGradient4231-1" id="linearGradient3807-1-1" x1="10" y1="15.889" x2="10" y2="7" gradientUnits="userSpaceOnUse"/><linearGradient id="linearGradient4231-1"><stop id="stop4233-6" offset="0" style="stop-color:#e5e5de;stop-opacity:1"/><stop id="stop4239-7" offset="1" style="stop-color:#dadad3;stop-opacity:1"/></linearGradient><linearGradient id="linearGradient4363"><stop style="stop-color:#979791;stop-opacity:1" offset="0" id="stop4365"/><stop style="stop-color:#dadad4;stop-opacity:0" offset="1" id="stop4367"/></linearGradient><linearGradient id="linearGradient4363-7"><stop style="stop-color:#f5f5ef;stop-opacity:1" offset="0" id="stop4365-9"/><stop style="stop-color:#dadad4;stop-opacity:0" offset="1" id="stop4367-8"/></linearGradient><linearGradient xlink:href="#linearGradient4231-7" id="linearGradient4361" gradientUnits="userSpaceOnUse" gradientTransform="matrix(1.1875 0 0 1 -41.25 0)" x1="248.632" y1="79" x2="248.632" y2="58"/><linearGradient id="linearGradient4231-7"><stop id="stop4233-4" offset="0" style="stop-color:#e6e6df;stop-opacity:1"/><stop id="stop4239-8" offset="1" style="stop-color:#d1d1ca;stop-opacity:1"/></linearGradient><linearGradient xlink:href="#linearGradient4231-7" id="linearGradient3127" gradientUnits="userSpaceOnUse" gradientTransform="matrix(1.1875 0 0 1 -262.25 -56)" x1="248.632" y1="79" x2="248.632" y2="58"/><linearGradient xlink:href="#linearGradient4231-7" id="linearGradient3154" gradientUnits="userSpaceOnUse" gradientTransform="matrix(1.1875 0 0 1 -262.25 -56)" x1="248.632" y1="79" x2="248.632" y2="58"/><linearGradient xlink:href="#linearGradient4231-7" id="linearGradient3159" gradientUnits="userSpaceOnUse" gradientTransform="matrix(1.1875 0 0 1 -249.25 -55)" x1="248.632" y1="79" x2="248.632" y2="58"/><linearGradient xlink:href="#linearGradient4231-7-9" id="linearGradient3159-0" gradientUnits="userSpaceOnUse" gradientTransform="matrix(1.1875 0 0 1 -262.25 -56)" x1="248.632" y1="79" x2="248.632" y2="58"/><linearGradient id="linearGradient4231-7-9"><stop id="stop4233-4-2" offset="0" style="stop-color:#e6e6df;stop-opacity:1"/><stop id="stop4239-8-9" offset="1" style="stop-color:#d1d1ca;stop-opacity:1"/></linearGradient><linearGradient id="linearGradient4231-5"><stop id="stop4233-41" offset="0" style="stop-color:#e5e5de;stop-opacity:1"/><stop id="stop4239-73" offset="1" style="stop-color:#dadad3;stop-opacity:1"/></linearGradient><linearGradient xlink:href="#linearGradient4231-7-7" id="linearGradient3159-1" gradientUnits="userSpaceOnUse" gradientTransform="matrix(1.1875 0 0 1 -262.25 -56)" x1="248.632" y1="79" x2="248.632" y2="58"/><linearGradient id="linearGradient4231-7-7"><stop id="stop4233-4-7" offset="0" style="stop-color:#e6e6df;stop-opacity:1"/><stop id="stop4239-8-2" offset="1" style="stop-color:#d1d1ca;stop-opacity:1"/></linearGradient><linearGradient xlink:href="#linearGradient4231-73" id="linearGradient3807-1-7" x1="10" y1="15.889" x2="10" y2="7" gradientUnits="userSpaceOnUse"/><linearGradient id="linearGradient4231-73"><stop id="stop4233-1" offset="0" style="stop-color:#e5e5de;stop-opacity:1"/><stop id="stop4239-85" offset="1" style="stop-color:#dadad3;stop-opacity:1"/></linearGradient><radialGradient xlink:href="#linearGradient4363-7" id="radialGradient5329" cx="-14.843" cy="1034.921" fx="-14.843" fy="1034.921" r="8.006" gradientTransform="matrix(1 0 0 .49293 .121 524.596)" gradientUnits="userSpaceOnUse"/><filter id="filter5355" x="-.182" width="1.365" y="-.373" height="1.746"><feGaussianBlur stdDeviation="1.207" id="feGaussianBlur5357"/></filter></defs><g id="layer1" transform="translate(0 -1092.653)"><g id="active-center" transform="matrix(.02212 0 0 -.02212 2.815 1117.89)"><path d="M458.879 7.858c251.8 0 455.921 204.125 455.921 455.93 0 251.795-204.12 455.92-455.921 455.92-251.8 0-455.925-204.125-455.925-455.92 0-251.805 204.126-455.93 455.925-455.93" style="fill:#b2d19d;fill-opacity:1;fill-rule:evenodd;stroke:none;stroke-width:1.06666672;enable-background:new" id="path14"/><path d="M458.877 46.638c230.384 0 417.15 186.763 417.15 417.15 0 230.379-186.766 417.141-417.15 417.141-230.383 0-417.15-186.762-417.15-417.141 0-230.387 186.767-417.15 417.15-417.15" style="fill:#b0e5a0;fill-opacity:1;fill-rule:evenodd;stroke:none;stroke-width:1.06666672;enable-background:new" id="path16"/></g><g id="hover-center" transform="matrix(.02212 0 0 -.02212 25.48 1117.819)"><path d="M461.86 916.488c-251.801 0-455.923-204.125-455.923-455.93 0-251.795 204.122-455.92 455.924-455.92 251.8 0 455.927 204.125 455.927 455.92 0 251.805-204.127 455.93-455.927 455.93" style="fill:#b7e6ac;fill-opacity:1;fill-rule:evenodd;stroke:none;stroke-width:1.06666911;enable-background:new" id="path14-3"/><path d="M461.863 877.708c-230.386 0-417.152-186.763-417.152-417.15 0-230.379 186.766-417.141 417.152-417.141 230.384 0 417.152 186.762 417.152 417.141 0 230.387-186.768 417.15-417.152 417.15" style="fill:#b7e6ac;fill-opacity:1;fill-rule:evenodd;stroke:none;stroke-width:1.06666911;enable-background:new" id="path16-5-3"/><path d="m210.64 424.223 202.329 202.33c26.838 26.838 70.749 26.838 97.587 0l202.33-202.33H210.64" style="fill:#8aa975;fill-opacity:1;fill-rule:evenodd;stroke:none;stroke-width:1.06666911" id="path18-6"/><path d="m210.839 271.325 202.329 202.33c26.838 26.838 70.749 26.837 97.587 0l202.33-202.331H210.84" style="fill:#8aa975;fill-opacity:1;fill-rule:evenodd;stroke:#b7e6ac;stroke-width:55.33890533;stroke-linecap:round;stroke-linejoin:round;stroke-miterlimit:4;stroke-dasharray:none;stroke-opacity:1;enable-background:new" id="path18-6-35"/><path d="m211.038 118.427 202.329 202.329c26.838 26.838 70.749 26.838 97.587 0l202.33-202.33H211.039" style="fill:#b7e6ac;fill-opacity:1;fill-rule:evenodd;stroke:#b7e6ac;stroke-width:28.21199226;stroke-linecap:round;stroke-linejoin:round;stroke-miterlimit:4;stroke-dasharray:none;stroke-opacity:1;paint-order:markers stroke fill;enable-background:new" id="path18-6-36-6"/></g><g id="pressed-center" transform="matrix(.02212 0 0 -.02212 47.96 1117.944)"><path id="path14-2" style="fill:#a8ce8e;fill-opacity:1;fill-rule:evenodd;stroke:none;stroke-width:1.06666672" d="M461.86 922.133C210.06 922.133 5.938 718.01 5.938 466.206c0-251.794 204.122-455.919 455.924-455.919 251.8 0 455.927 204.125 455.927 455.92 0 251.803-204.127 455.926-455.927 455.926"/><path id="path16-9-6" style="fill:#a8ce8e;fill-opacity:1;fill-rule:evenodd;stroke:none;stroke-width:1.06666672" d="M461.86 883.354c-230.384 0-417.151-186.762-417.151-417.148 0-230.377 186.767-417.139 417.152-417.139 230.384 0 417.152 186.762 417.152 417.14 0 230.385-186.768 417.147-417.152 417.147"/><path id="path18-6-9" style="fill:#8aa975;fill-opacity:1;fill-rule:evenodd;stroke:none;stroke-width:1.06666672" d="m210.638 429.925 202.329 202.328c26.838 26.838 70.75 26.838 97.587 0l202.33-202.33-502.246.001"/><path id="path18-6-35-1" style="fill:#8aa975;fill-opacity:1;fill-rule:evenodd;stroke:#a8ce8e;stroke-width:55.33877945;stroke-linecap:round;stroke-linejoin:round;stroke-miterlimit:4;stroke-dasharray:none;stroke-opacity:1;enable-background:new" d="m210.837 277.027 202.329 202.328c26.838 26.838 70.75 26.838 97.587 0l202.33-202.33-502.246.002"/><path id="path18-6-36-6-2" style="fill:#a8ce8e;fill-opacity:1;fill-rule:evenodd;stroke:#a8ce8e;stroke-width:28.21192741;stroke-linecap:round;stroke-linejoin:round;stroke-miterlimit:4;stroke-dasharray:none;stroke-opacity:1;paint-order:markers stroke fill;enable-background:new" d="m211.036 124.13 202.329 202.327c26.838 26.839 70.75 26.838 97.587 0l202.33-202.329-502.246.001"/><path transform="scale(-1 1)" id="rect17883-79-3-0" style="display:inline;opacity:1;fill:none;fill-opacity:1;stroke:none;stroke-width:48.22551727;stroke-linecap:butt;stroke-linejoin:miter;stroke-miterlimit:4;stroke-dasharray:none;stroke-dashoffset:0;stroke-opacity:0;enable-background:new" d="M-847.668 80.407h771.61v771.606h-771.61z"/></g><g id="inactive-center" transform="matrix(.02212 0 0 -.02212 73.96 1117.824)"><path d="M458.879 4.875c251.8 0 455.925 204.121 455.925 455.925 0 251.796-204.125 455.921-455.925 455.921S2.954 712.596 2.954 460.8C2.954 208.996 207.08 4.875 458.88 4.875" style="fill:#b4b4b4;fill-opacity:1;fill-rule:evenodd;stroke:none;stroke-width:1.06666672" id="path14-0"/><path d="M458.879 43.65c230.384 0 417.15 186.763 417.15 417.15 0 230.379-186.766 417.146-417.15 417.146-230.383 0-417.15-186.767-417.15-417.146 0-230.387 186.767-417.15 417.15-417.15" style="fill:#c7c7c7;fill-opacity:1;fill-rule:evenodd;stroke:none;stroke-width:1.06666672" id="path16-8"/></g><g id="deactivated-center" transform="matrix(.02212 0 0 -.02212 96.716 1117.824)"><path d="M458.879 4.875c251.8 0 455.925 204.121 455.925 455.925 0 251.796-204.125 455.921-455.925 455.921S2.954 712.596 2.954 460.8C2.954 208.996 207.08 4.875 458.88 4.875" style="fill:#b4b4b4;fill-opacity:1;fill-rule:evenodd;stroke:none;stroke-width:1.06666672" id="path14-0-0"/><path d="M458.879 43.65c230.384 0 417.15 186.763 417.15 417.15 0 230.379-186.766 417.146-417.15 417.146-230.383 0-417.15-186.767-417.15-417.146 0-230.387 186.767-417.15 417.15-417.15" style="fill:#c7c7c7;fill-opacity:1;fill-rule:evenodd;stroke:none;stroke-width:1.06666672" id="path16-8-4"/></g></g></svg>