<svg width="119.47" height="29.867" xmlns="http://www.w3.org/2000/svg"><defs><filter id="filter5355" x="-.185" y="-.379" width="1.371" height="1.758"><feGaussianBlur stdDeviation="1.207"/></filter></defs><g transform="translate(0 -1092.7)"><path d="M14.034 1117.35c5.372 0 9.727-4.354 9.727-9.727s-4.355-9.728-9.727-9.728c-5.373 0-9.728 4.355-9.728 9.728 0 5.372 4.355 9.728 9.728 9.728" fill-rule="evenodd" stroke="#f55" stroke-width=".71297184" id="active-center" fill="#f55"/><g id="hover-center" fill-rule="evenodd"><path d="M35.718 1097.914c5.372 0 9.728 4.355 9.728 9.728 0 5.373-4.356 9.728-9.728 9.728-5.373 0-9.728-4.355-9.728-9.728 0-5.373 4.355-9.728 9.728-9.728" fill="#f55" stroke="#f55" stroke-width=".7129939599999999"/><path d="m226.23 281.69 414.22 414.22c16.031 16.029 42.257 16.029 58.295 0l.766-.775c16.034-16.029 16.034-42.257.004-58.29l-414.22-414.21c-16.034-16.035-42.26-16.035-58.29 0l-.775.765c-16.031 16.034-16.031 42.266 0 58.295" fill="#44475a" transform="matrix(.02212 0 0 -.02212 25.48 1117.8)"/><path d="m285.3 695.91 414.21-414.22c16.029-16.029 16.029-42.261 0-58.291l-.771-.77c-16.034-16.034-42.26-16.034-58.291 0l-414.22 414.21c-16.035 16.034-16.035 42.261 0 58.295l.77.77c16.034 16.034 42.26 16.034 58.295 0" fill="#44475a" transform="matrix(.02212 0 0 -.02212 25.48 1117.8)"/></g><g id="pressed-center" fill-rule="evenodd"><path d="M461.87 10.287c251.8 0 455.92 204.13 455.92 455.92 0 251.8-204.12 455.93-455.92 455.93S5.94 718.017 5.94 466.207c0-251.8 204.13-455.92 455.93-455.92" fill="#f55" transform="matrix(.02212 0 0 -.02212 47.96 1117.9)"/><path d="M461.87 49.063c230.38 0 417.14 186.77 417.14 417.15 0 230.39-186.76 417.15-417.14 417.15-230.39 0-417.15-186.76-417.15-417.15 0-230.38 186.76-417.15 417.15-417.15" fill="#f55" transform="matrix(.02212 0 0 -.02212 47.96 1117.9)"/><path d="m225.22 288.64 414.21 414.21c16.03 16.034 42.256 16.034 58.295 0l.766-.77c16.034-16.03 16.034-42.261.004-58.291l-414.21-414.21c-16.034-16.034-42.26-16.034-58.29 0l-.774.765c-16.03 16.034-16.03 42.261 0 58.295" fill="#282a36" transform="matrix(.02212 0 0 -.02212 47.96 1117.9)"/><path d="M284.29 702.85 698.5 288.64c16.029-16.029 16.029-42.261 0-58.295l-.771-.765c-16.034-16.034-42.26-16.034-58.29 0l-414.21 414.21c-16.035 16.03-16.035 42.26 0 58.29l.77.77c16.034 16.035 42.26 16.035 58.295 0" fill="#282a36" transform="matrix(.02212 0 0 -.02212 47.96 1117.9)"/></g><g id="inactive-center" fill="#5b5c63" fill-rule="evenodd"><path d="M289.13 8.279c251.81 0 455.94 204.13 455.94 455.94 0 251.8-204.13 455.93-455.94 455.93s-455.94-204.13-455.94-455.93c0-251.81 204.13-455.94 455.94-455.94" transform="matrix(.02212 0 0 -.02212 75.009 1117.9)"/><path d="M289.13 47.055c230.39 0 417.16 186.77 417.16 417.16 0 230.38-186.77 417.16-417.16 417.16-230.39 0-417.16-186.77-417.16-417.16 0-230.39 186.77-417.16 417.16-417.16" transform="matrix(.02212 0 0 -.02212 75.009 1117.9)"/></g><g id="deactivated-center" fill="#5b5c63" fill-rule="evenodd"><path d="M313.42 8.279c251.81 0 455.94 204.13 455.94 455.94 0 251.8-204.13 455.93-455.94 455.93s-455.94-204.13-455.94-455.93c0-251.81 204.13-455.94 455.94-455.94" transform="matrix(.02212 0 0 -.02212 96.716 1117.9)"/><path d="M313.42 47.055c230.39 0 417.16 186.77 417.16 417.16 0 230.38-186.77 417.16-417.16 417.16-230.39 0-417.16-186.77-417.16-417.16 0-230.39 186.77-417.16 417.16-417.16" transform="matrix(.02212 0 0 -.02212 96.716 1117.9)"/></g></g></svg>