<svg width="84" height="84" version="1" xmlns="http://www.w3.org/2000/svg" xmlns:xlink="http://www.w3.org/1999/xlink"><defs><radialGradient id="radialGradient4275" cx="984" cy="905.36" r="8.5" gradientTransform="rotate(-90.001 72.492 1333.693) scale(1.4118)" gradientUnits="userSpaceOnUse" xlink:href="#linearGradient4215-49"/><radialGradient id="radialGradient3382" cx="984" cy="905.36" r="8.5" gradientTransform="rotate(90 1333.704 11.504) scale(1.4118)" gradientUnits="userSpaceOnUse" xlink:href="#linearGradient4215-49"/><radialGradient id="radialGradient4255" cx="982.91" cy="906.45" r="8.5" gradientTransform="translate(-1320.6 -1262.7) scale(1.4118)" gradientUnits="userSpaceOnUse" xlink:href="#linearGradient4215-49"/><radialGradient id="radialGradient4263" cx="984" cy="905.36" r="8.5" gradientTransform="rotate(-180 703.102 672.598) scale(1.4118)" gradientUnits="userSpaceOnUse" xlink:href="#linearGradient4215-49"/><linearGradient id="linearGradient4215-49"><stop stop-opacity=".184" offset="0"/><stop stop-opacity="0" offset="1"/></linearGradient><linearGradient id="linearGradient4271" x1="83.6" x2="83.6" y1="-969.36" y2="-957.36" gradientTransform="matrix(.71429 0 0 1 -317.71 1250.4)" gradientUnits="userSpaceOnUse" xlink:href="#linearGradient4215-49"/><linearGradient id="linearGradient4452" x1="-260" x2="-260" y1="281" y2="293" gradientUnits="userSpaceOnUse" xlink:href="#linearGradient4215-49"/></defs><path id="decoration-center" class="ColorScheme-Background" fill="#1e1f29" d="M17 17h50v50H17z"/><g id="decoration-bottomleft"><path id="shadow-bottomleft" d="M17 84V74h-2c-2.77 0-5-2.23-5-5v-2H0v17z" fill="url(#radialGradient4263)"/><path class="ColorScheme-Background" d="M17 74v-7h-7v2c0 2.77 2.23 5 5 5z" color="#383c4a" fill="#1e1f29"/></g><g id="decoration-left"><path transform="matrix(0 -1 -1 0 298 -240)" fill="url(#linearGradient4271)" d="M-307 288h50v10h-50z"/><path transform="matrix(-1 0 0 1 295 -238)" fill-opacity="0" d="M278 257h7v1h-7z"/><path class="ColorScheme-Background" d="M10 17v50h7V17z" color="#383c4a" fill="#1e1f29"/></g><g id="decoration-right"><g id="shadow-right"><path transform="rotate(-90 -227 -13)" fill="url(#linearGradient4452)" d="M-307 288h50v10h-50z"/><path transform="translate(-211 -238)" fill-opacity="0" d="M278 257h7v1h-7z"/></g><path class="ColorScheme-Background" d="M74 17v50h-7V17z" color="#383c4a" fill="#1e1f29"/></g><g id="decoration-bottom"><g id="shadow-bottom"><path transform="translate(324 -214)" fill="url(#linearGradient4271)" d="M-307 288h50v10h-50z"/><path transform="rotate(90 266.5 55.5)" fill-opacity="0" d="M278 257h7v1h-7z"/></g><path class="ColorScheme-Background" d="M17 74h50v-7H17z" color="#383c4a" fill="#1e1f29"/></g><g id="decoration-bottomright"><path id="shadow-bottomright" d="M84 67H74v2c0 2.77-2.23 5-5 5h-2v10h17z" fill="url(#radialGradient3382)"/><path class="ColorScheme-Background" d="M67 74v-7h7v2c0 2.77-2.23 5-5 5z" color="#383c4a" fill="#1e1f29"/></g><g id="decoration-top"><path transform="matrix(1 0 0 -1 324 298)" fill="url(#linearGradient4271)" d="M-307 288h50v10h-50z"/><path transform="matrix(0 -1 -1 0 322 295)" fill-opacity="0" d="M278 257h7v1h-7z"/><path class="ColorScheme-Background" d="M17 10h50v7H17z" color="#383c4a" fill="#1e1f29"/></g><g id="decoration-topright"><path id="shadow-topright" d="M67 0v10h2c2.77 0 5 2.23 5 5v2h10V0z" fill="url(#radialGradient4255)"/><path class="ColorScheme-Background" d="M67 10v7h7v-2c0-2.77-2.23-5-5-5z" color="#383c4a" fill="#1e1f29"/></g><g id="decoration-topleft"><path id="shadow-topleft" d="M0 17h10v-2c0-2.77 2.23-5 5-5h2V0H0z" fill="url(#radialGradient4275)"/><path class="ColorScheme-Background" d="M17 10v7h-7v-2c0-2.77 2.23-5 5-5z" color="#383c4a" fill="#1e1f29"/></g></svg>