<svg width="119.47" height="29.867" xmlns="http://www.w3.org/2000/svg"><defs><filter id="filter5355" x="-.182" y="-.373" width="1.365" height="1.746"><feGaussianBlur stdDeviation="1.207"/></filter></defs><g fill-rule="evenodd" transform="translate(-.987 -1072.6)"><g id="active-center" fill="#bd93f9"><path d="M458.88 7.858c251.8 0 455.92 204.12 455.92 455.93 0 251.8-204.12 455.92-455.92 455.92S2.96 715.578 2.96 463.788c0-251.8 204.13-455.93 455.92-455.93" enable-background="new" transform="matrix(.02212 0 0 -.02212 2.815 1097.8)"/><path d="M458.88 46.638c230.38 0 417.15 186.76 417.15 417.15 0 230.38-186.77 417.14-417.15 417.14S41.73 694.168 41.73 463.788c0-230.39 186.77-417.15 417.15-417.15" enable-background="new" transform="matrix(.02212 0 0 -.02212 2.815 1097.8)"/></g><g id="hover-center"><path d="M461.86 916.49c-251.8 0-455.92-204.12-455.92-455.93 0-251.8 204.12-455.92 455.92-455.92s455.93 204.13 455.93 455.92c0 251.8-204.13 455.93-455.93 455.93" enable-background="new" fill="#bd93f9" transform="matrix(.02212 0 0 -.02212 25.48 1097.7)"/><path d="M461.86 877.71c-230.39 0-417.15-186.76-417.15-417.15 0-230.38 186.77-417.14 417.15-417.14s417.15 186.76 417.15 417.14c0 230.39-186.77 417.15-417.15 417.15" enable-background="new" fill="#bd93f9" transform="matrix(.02212 0 0 -.02212 25.48 1097.7)"/><path d="m210.74 349.34 202.33 202.33c26.838 26.838 70.749 26.838 97.587 0l202.33-202.33-502.25.002" enable-background="new" fill="#44475a" transform="matrix(.02212 0 0 -.02212 25.48 1097.7)"/></g><g id="pressed-center"><path d="M461.87 10.28c251.8 0 455.92 204.12 455.92 455.93 0 251.79-204.12 455.92-455.92 455.92S5.94 718.01 5.94 466.21 210.07 10.28 461.87 10.28" fill="#58b4aa" transform="matrix(.02212 0 0 -.02212 47.96 1097.9)"/><path d="M461.86 922.13c-251.8 0-455.92-204.12-455.92-455.93 0-251.79 204.12-455.92 455.92-455.92S917.79 214.4 917.79 466.2 713.66 922.13 461.86 922.13" enable-background="new" fill="#bd93f9" transform="matrix(.02212 0 0 -.02212 47.96 1097.9)"/><path d="M461.86 883.35c-230.39 0-417.15-186.76-417.15-417.15 0-230.38 186.77-417.14 417.15-417.14S879.01 235.82 879.01 466.2c0 230.39-186.77 417.15-417.15 417.15" enable-background="new" fill="#bd93f9" transform="matrix(.02212 0 0 -.02212 47.96 1097.9)"/><path d="m210.74 354.98 202.33 202.33c26.838 26.838 70.749 26.838 97.587 0l202.33-202.33-502.25.002" enable-background="new" fill="#282a36" transform="matrix(.02212 0 0 -.02212 47.96 1097.9)"/></g><g id="inactive-center" fill="#44475a"><path d="M438.92-4.105c251.81 0 455.94 204.13 455.94 455.94 0 251.8-204.13 455.93-455.94 455.93s-455.94-204.13-455.94-455.93c0-251.81 204.13-455.94 455.94-455.94" transform="matrix(.02212 0 0 -.02212 73.959 1097.6)"/><path d="M438.92 34.671c230.39 0 417.16 186.77 417.16 417.16 0 230.38-186.77 417.16-417.16 417.16S21.76 682.221 21.76 451.831s186.77-417.16 417.16-417.16" transform="matrix(.02212 0 0 -.02212 73.959 1097.6)"/></g><g id="deactivated-center" fill="#44475a"><path d="M408.52 2.27c251.81 0 455.94 204.13 455.94 455.94 0 251.8-204.13 455.93-455.94 455.93S-47.42 710.01-47.42 458.21c0-251.81 204.13-455.94 455.94-455.94" transform="matrix(.02212 0 0 -.02212 96.716 1097.7)"/><path d="M408.52 41.046c230.39 0 417.16 186.77 417.16 417.16 0 230.38-186.77 417.16-417.16 417.16S-8.64 688.596-8.64 458.206s186.77-417.16 417.16-417.16" transform="matrix(.02212 0 0 -.02212 96.716 1097.7)"/></g></g></svg>