<svg width="119.47" height="29.867" xmlns="http://www.w3.org/2000/svg"><defs><filter id="filter5355" x="-.185" y="-.379" width="1.371" height="1.758"><feGaussianBlur stdDeviation="1.207"/></filter></defs><g transform="translate(0 -1092.7)" fill-rule="evenodd"><g id="active-center" fill="#ffb86c"><path d="M458.88 7.858c251.8 0 455.92 204.12 455.92 455.93 0 251.8-204.12 455.92-455.92 455.92S2.96 715.578 2.96 463.788c0-251.8 204.13-455.93 455.92-455.93" enable-background="new" transform="matrix(.02212 0 0 -.02212 2.815 1117.9)"/><path d="M458.88 46.638c230.38 0 417.15 186.76 417.15 417.15 0 230.38-186.77 417.14-417.15 417.14-230.38 0-417.15-186.76-417.15-417.14 0-230.39 186.77-417.15 417.15-417.15" enable-background="new" transform="matrix(.02212 0 0 -.02212 2.815 1117.9)"/></g><g id="hover-center"><path d="M461.86 4.637c251.8 0 455.92 204.12 455.92 455.93 0 251.8-204.12 455.92-455.92 455.92S5.93 712.357 5.93 460.567c0-251.8 204.13-455.93 455.93-455.93" enable-background="new" fill="#ffb86c" transform="matrix(.02212 0 0 -.02212 25.48 1117.8)"/><path d="M461.86 43.417c230.39 0 417.15 186.76 417.15 417.15 0 230.38-186.77 417.14-417.15 417.14-230.38 0-417.15-186.76-417.15-417.14 0-230.39 186.77-417.15 417.15-417.15" enable-background="new" fill="#ffb86c" transform="matrix(.02212 0 0 -.02212 25.48 1117.8)"/><path d="M712.99 571.79 510.66 369.46c-26.838-26.838-70.749-26.838-97.587 0l-202.33 202.33h502.25" enable-background="new" fill="#44475a" transform="matrix(.02212 0 0 -.02212 25.48 1117.8)"/></g><g id="pressed-center"><path d="M461.86 10.287c251.8 0 455.92 204.12 455.92 455.93 0 251.79-204.12 455.92-455.92 455.92S5.93 718.017 5.93 466.217s204.13-455.93 455.93-455.93" enable-background="new" fill="#ffb86c" transform="matrix(.02212 0 0 -.02212 47.96 1117.9)"/><path d="M461.86 49.067c230.39 0 417.15 186.76 417.15 417.15 0 230.38-186.77 417.14-417.15 417.14-230.38 0-417.15-186.76-417.15-417.14 0-230.39 186.77-417.15 417.15-417.15" enable-background="new" fill="#ffb86c" transform="matrix(.02212 0 0 -.02212 47.96 1117.9)"/><path d="M712.99 577.44 510.66 375.11c-26.838-26.838-70.749-26.838-97.587 0l-202.33 202.33 502.25-.002" enable-background="new" fill="#282a36" transform="matrix(.02212 0 0 -.02212 47.96 1117.9)"/></g><g id="inactive-center" fill="#5b5c63"><path d="M406.02 3.404c251.81 0 455.94 204.13 455.94 455.94 0 251.8-204.13 455.93-455.94 455.93s-455.94-204.13-455.94-455.93c0-251.81 204.13-455.94 455.94-455.94" transform="matrix(.02212 0 0 -.02212 73.959 1117.8)"/><path d="M406.02 42.18c230.39 0 417.16 186.77 417.16 417.16 0 230.38-186.77 417.16-417.16 417.16-230.39 0-417.16-186.77-417.16-417.16 0-230.39 186.77-417.16 417.16-417.16" transform="matrix(.02212 0 0 -.02212 73.959 1117.8)"/></g><g id="deactivated-center" fill="#5b5c63"><path d="M365.59 3.404c251.81 0 455.94 204.13 455.94 455.94 0 251.8-204.13 455.93-455.94 455.93s-455.94-204.13-455.94-455.93c0-251.81 204.13-455.94 455.94-455.94" transform="matrix(.02212 0 0 -.02212 96.716 1117.8)"/><path d="M365.59 42.18c230.39 0 417.16 186.77 417.16 417.16 0 230.38-186.77 417.16-417.16 417.16-230.39 0-417.16-186.77-417.16-417.16 0-230.39 186.77-417.16 417.16-417.16" transform="matrix(.02212 0 0 -.02212 96.716 1117.8)"/></g></g></svg>