<svg width="119.47" height="29.867" xmlns="http://www.w3.org/2000/svg"><g transform="translate(0 -1092.7)" fill-rule="evenodd"><g id="active-center" fill="#f1fa8c"><path d="M461.25.342c251.81 0 455.94 204.13 455.94 455.94 0 251.8-204.13 455.93-455.94 455.93S5.31 708.082 5.31 456.282C5.31 204.472 209.44.342 461.25.342" transform="matrix(.02212 0 0 -.02212 5.362 1118.3)"/><path d="M461.26 32.909c233.82 0 423.36 189.55 423.36 423.37s-189.55 423.37-423.36 423.37c-233.82 0-423.37-189.55-423.37-423.37s189.55-423.37 423.37-423.37" transform="matrix(.02212 0 0 -.02212 5.362 1118.3)"/></g><g id="hover-center"><path d="M461.9 2.08c251.8 0 455.93 204.12 455.93 455.93 0 251.8-204.12 455.92-455.93 455.92-251.8 0-455.92-204.12-455.92-455.92S210.11 2.08 461.9 2.08" fill="#f1fa8c" transform="matrix(.02212 0 0 -.02212 27.612 1118.5)"/><path d="M461.9 40.854c230.38 0 417.15 186.76 417.15 417.15 0 230.38-186.76 417.15-417.15 417.15-230.38 0-417.15-186.76-417.15-417.15S231.52 40.854 461.9 40.854" fill="#f1fa8c" transform="matrix(.02212 0 0 -.02212 27.612 1118.5)"/><path d="M181.35 390.19A35.923 67.809 0 0 0 145.426 458a35.923 67.809 0 0 0 35.922 67.807l561.12.019a35.923 67.809 0 0 0 35.924-67.807 35.923 67.809 0 0 0-35.922-67.81z" color="#000" fill="#44475a" opacity=".9" stroke-linecap="round" style="-inkscape-stroke:none" transform="matrix(.02212 0 0 -.02212 27.612 1118.5)"/></g><g id="inactive-center" fill="#5b5c63"><path d="M456.39-18.35c251.81 0 455.94 204.13 455.94 455.94 0 251.8-204.13 455.93-455.94 455.93S.45 689.39.45 437.59c0-251.81 204.13-455.94 455.94-455.94" transform="matrix(.02212 0 0 -.02212 74.254 1118.3)"/><path d="M456.39 20.425c230.39 0 417.16 186.77 417.16 417.16 0 230.38-186.77 417.16-417.16 417.16S39.23 667.975 39.23 437.585 226 20.425 456.39 20.425" transform="matrix(.02212 0 0 -.02212 74.254 1118.3)"/></g><g id="pressed-center"><path d="M464.89 10.287c251.8 0 455.93 204.13 455.93 455.92 0 251.8-204.13 455.93-455.93 455.93S8.97 718.017 8.97 466.207c0-251.8 204.13-455.92 455.92-455.92" fill="#f1fa8c" transform="matrix(.02212 0 0 -.02212 51.116 1119)"/><path d="M464.9 49.062c230.39 0 417.15 186.77 417.15 417.15 0 230.39-186.76 417.15-417.15 417.15-230.38 0-417.15-186.76-417.15-417.15 0-230.38 186.76-417.15 417.15-417.15" fill="#f1fa8c" transform="matrix(.02212 0 0 -.02212 51.116 1119)"/><path d="M184.34 398.39a35.923 67.807 0 0 0-35.924 67.809 35.923 67.807 0 0 0 35.922 67.809l561.12.019a35.923 67.807 0 0 0 35.922-67.81 35.923 67.807 0 0 0-35.922-67.808z" color="#000" fill="#282a36" opacity=".9" stroke-linecap="round" transform="matrix(.02212 0 0 -.02212 51.116 1119)"/></g><g id="deactivated-center" fill="#5b5c63"><path d="M485.08-26.941c251.81 0 455.94 204.13 455.94 455.94 0 251.8-204.13 455.93-455.94 455.93S29.14 680.799 29.14 428.999c0-251.81 204.13-455.94 455.94-455.94" transform="matrix(.02212 0 0 -.02212 96.977 1118.1)"/><path d="M485.08 11.835c230.39 0 417.16 186.77 417.16 417.16 0 230.38-186.77 417.16-417.16 417.16S67.92 659.385 67.92 428.995s186.77-417.16 417.16-417.16" transform="matrix(.02212 0 0 -.02212 96.977 1118.1)"/></g></g></svg>