<svg width="119.47" height="29.867" xmlns="http://www.w3.org/2000/svg"><g transform="translate(0 -1092.7)"><g id="active-center" fill="#50fa7b" fill-rule="evenodd"><path d="M486.81.503c251.8 0 455.93 204.13 455.93 455.94s-204.13 455.94-455.93 455.94c-251.81 0-455.94-204.13-455.94-455.94S235 .503 486.81.503" transform="matrix(.02212 0 0 -.02212 2.35 1117.3)"/><path d="M486.8 33.069c233.82 0 423.36 189.55 423.36 423.37s-189.55 423.37-423.36 423.37c-233.82 0-423.37-189.55-423.37-423.37S252.98 33.069 486.8 33.069" transform="matrix(.02212 0 0 -.02212 2.35 1117.3)"/></g><g id="hover-center"><path d="M538.34-2.72c251.8 0 455.93 204.13 455.93 455.94S790.14 909.16 538.34 909.16c-251.81 0-455.94-204.13-455.94-455.94S286.53-2.72 538.34-2.72" fill="#50fa7b" fill-rule="evenodd" transform="matrix(.02212 0 0 -.02212 24.718 1117.2)"/><path d="M538.34 29.846c233.82 0 423.37 189.55 423.37 423.37s-189.55 423.37-423.37 423.37-423.37-189.55-423.37-423.37 189.55-423.37 423.37-423.37" fill="#50fa7b" fill-rule="evenodd" transform="matrix(.02212 0 0 -.02212 24.718 1117.2)"/><path d="M317.36 650h267.2c35.579 0 64.692-29.113 64.692-64.695v-267.2zm232.32-436.21H281.43c-35.583 0-64.692 29.109-64.692 64.691v268.25l332.94-332.94" fill-rule="evenodd" transform="matrix(.02394 0 0 -.02394 26.257 1117.517)" fill="#44475a"/></g><g id="pressed-center"><path d="M531.85 2.93c251.8 0 455.93 204.13 455.93 455.93 0 251.81-204.13 455.93-455.93 455.93-251.81 0-455.94-204.13-455.94-455.93S280.04 2.93 531.85 2.93" fill="#50fa7b" fill-rule="evenodd" transform="matrix(.02212 0 0 -.02212 49.285 1117.3)"/><path d="M531.84 35.497c233.82 0 423.37 189.55 423.37 423.37s-189.55 423.37-423.37 423.37-423.37-189.55-423.37-423.37 189.55-423.37 423.37-423.37" fill="#50fa7b" fill-rule="evenodd" transform="matrix(.02212 0 0 -.02212 49.285 1117.3)"/><path d="M317.36 650h267.2c35.579 0 64.692-29.113 64.692-64.695v-267.2zm232.32-436.21H281.43c-35.583 0-64.692 29.109-64.692 64.691v268.25l332.94-332.94" fill-rule="evenodd" transform="matrix(.02394 0 0 -.02394 50.68 1117.492)" fill="#282a36"/></g><g id="inactive-center" fill="#5b5c63" fill-rule="evenodd"><path d="M-419.92 788.75c251.81 0 455.94 204.13 455.94 455.94 0 251.8-204.13 455.93-455.94 455.93s-455.94-204.13-455.94-455.93c0-251.81 204.13-455.94 455.94-455.94" transform="matrix(.02212 0 0 -.02212 93.233 1134.7)"/><path d="M-419.92 827.52c230.39 0 417.16 186.77 417.16 417.16 0 230.38-186.77 417.16-417.16 417.16-230.39 0-417.16-186.77-417.16-417.16 0-230.39 186.77-417.16 417.16-417.16" transform="matrix(.02212 0 0 -.02212 93.233 1134.7)"/></g><g id="deactivated-center" fill="#5b5c63" fill-rule="evenodd"><path d="M325.19 181.83c251.81 0 455.94 204.13 455.94 455.94 0 251.8-204.13 455.93-455.94 455.93s-455.94-204.13-455.94-455.93c0-251.81 204.13-455.94 455.94-455.94" transform="matrix(.02212 0 0 -.02212 98.147 1121.3)"/><path d="M325.19 220.61c230.39 0 417.16 186.77 417.16 417.16 0 230.38-186.77 417.16-417.16 417.16-230.39 0-417.16-186.77-417.16-417.16 0-230.39 186.77-417.16 417.16-417.16" transform="matrix(.02212 0 0 -.02212 98.147 1121.3)"/></g></g></svg>